<svg xmlns="http://www.w3.org/2000/svg" width="17.5" height="11.5" viewBox="0 0 17.5 11.5">
  <path id="roverIcon" d="M7,10.5v-3a.5.5,0,0,1,1,0v3h7.717l1.354-2.257A.5.5,0,0,1,17.5,8h1.793l.854-.854a.5.5,0,0,1,.707.707l-.646.646.646.646a.5.5,0,0,1-.707.707L19.293,9h-1.51l-.9,1.5H18a.5.5,0,0,1,.5.5v3.5a2,2,0,1,1-2,2h-9a2,2,0,1,1-2-2V11a.5.5,0,0,1,.5-.5Zm9.008,1H6.5v3.268a2.01,2.01,0,0,1,.732.732h9.535a2.009,2.009,0,0,1,.732-.732V11.5ZM5.5,15.5a1,1,0,1,0,1,1A1,1,0,0,0,5.5,15.5Zm13,0a1,1,0,1,0,1,1A1,1,0,0,0,18.5,15.5Z" transform="translate(-3.5 -7)" fill="#a1a1a1" fill-rule="evenodd"/>
</svg>
